<svg xmlns="http://www.w3.org/2000/svg" viewBox="0 0 160.19 41.29"><defs><style>.cls-1{fill:#fff}.cls-2{fill:#fdb927}</style></defs><title>Asset 1</title><g id="Layer_2" data-name="Layer 2"><g id="Layer_1-2" data-name="Layer 1"><path class="cls-1" d="M158.91 27a1.3 1.3 0 1 0 1.28 1.3 1.29 1.29 0 0 0-1.28-1.3zm0 2.42a1.12 1.12 0 1 1 1.09-1.15 1.12 1.12 0 0 1-1.09 1.12zM63.9 14.12V10.3h4.77v3.82zm4.77 15.28H63.9V16h4.77zm6.87 0h-4.78V16h4.39v2.08A5.9 5.9 0 0 1 77 16.2a4.88 4.88 0 0 1 5.66.8 5.93 5.93 0 0 1 1.21 4.06v8.34h-4.81V22a2.61 2.61 0 0 0-.45-1.7 1.56 1.56 0 0 0-1.27-.52 1.61 1.61 0 0 0-1.31.61 3.13 3.13 0 0 0-.5 2zm15.24-9.94a1.88 1.88 0 0 1 1.46-.6 2.06 2.06 0 0 1 1.59.63 2.5 2.5 0 0 1 .61 1.72h-4.31a2.83 2.83 0 0 1 .65-1.75zm8.13 1.73a8.07 8.07 0 0 0-1.38-3 5.86 5.86 0 0 0-2.38-1.9 7.43 7.43 0 0 0-3-.61 6.36 6.36 0 0 0-4.93 2 7.46 7.46 0 0 0-1.87 5.24 6.89 6.89 0 0 0 1.85 5 6.7 6.7 0 0 0 5.09 1.94 7.45 7.45 0 0 0 3.53-.86 6.15 6.15 0 0 0 2.29-2 4.54 4.54 0 0 0 .69-1.7h-4.55a1.76 1.76 0 0 1-1.73 1.09 2.28 2.28 0 0 1-1.75-.67 2.79 2.79 0 0 1-.66-1.86h9.07a11.62 11.62 0 0 0-.26-2.68zm10.01-.87a3.82 3.82 0 0 1 .57 2.31 5.09 5.09 0 0 1-.25 1.71 2.13 2.13 0 0 1-.73 1.06 1.82 1.82 0 0 1-1.06.33A1.68 1.68 0 0 1 106 25a4.22 4.22 0 0 1-.55-2.45 3.54 3.54 0 0 1 .59-2.22 1.77 1.77 0 0 1 1.44-.76 1.71 1.71 0 0 1 1.44.75zm-3.33 7.76a6.66 6.66 0 0 0 .89 1 3.06 3.06 0 0 0 1 .52 4 4 0 0 0 1.39.21 4.82 4.82 0 0 0 3.87-1.92 8 8 0 0 0 1.57-5.22 10 10 0 0 0-.64-3.65 5.31 5.31 0 0 0-1.88-2.52 4.75 4.75 0 0 0-2.78-.87 4.35 4.35 0 0 0-2.43.68A3.52 3.52 0 0 0 105.1 18v-2h-4.28v18.61h4.77zm15.88-2.2a2.13 2.13 0 0 1-.77-1.09 5.88 5.88 0 0 1-.28-2A5 5 0 0 1 121 20a1.73 1.73 0 0 1 1.47-.83 1.54 1.54 0 0 1 1.34.71 4.76 4.76 0 0 1 .67 2.78 6.69 6.69 0 0 1-.26 2.07 2.17 2.17 0 0 1-.73 1.14 1.7 1.7 0 0 1-1 .32 1.82 1.82 0 0 1-1.02-.31zm-4-8.28a7.39 7.39 0 0 0-1.8 5.21 7.68 7.68 0 0 0 1 4 5.57 5.57 0 0 0 2.56 2.33 8.06 8.06 0 0 0 3.27.7 7.2 7.2 0 0 0 3.68-.94 5.77 5.77 0 0 0 2.38-2.51 8.18 8.18 0 0 0 .77-3.62 7.34 7.34 0 0 0-1.8-5.18 6.52 6.52 0 0 0-5-1.94 6.45 6.45 0 0 0-5.09 1.95zm18.27 11.8H131V10.94h4.74zm2.1-15.12v-3.82h4.77v3.82zm4.78 15.12h-4.77V16h4.77zm1.38-4.18h4.55a1.71 1.71 0 0 0 .46 1.21 1.64 1.64 0 0 0 1.23.47 1.53 1.53 0 0 0 1.08-.34 1.09 1.09 0 0 0 .37-.83 1 1 0 0 0-.21-.64 1.35 1.35 0 0 0-.73-.41L148 24a5.53 5.53 0 0 1-2.88-1.55 3.63 3.63 0 0 1-.81-2.39 4 4 0 0 1 .64-2.26 4.36 4.36 0 0 1 1.9-1.55 8.12 8.12 0 0 1 3.28-.57 6.53 6.53 0 0 1 4.37 1.2 4.07 4.07 0 0 1 1.44 3h-4.33a1.38 1.38 0 0 0-1.46-1.3 1.54 1.54 0 0 0-1 .32.8.8 0 0 0-.28.63.76.76 0 0 0 .22.55 2.47 2.47 0 0 0 1.07.45l2.27.57a5.93 5.93 0 0 1 3.13 1.62 3.81 3.81 0 0 1 .87 2.51 4.35 4.35 0 0 1-.49 2.07 4.22 4.22 0 0 1-1.34 1.49 5.71 5.71 0 0 1-2 .83 11.26 11.26 0 0 1-2.42.26 10.3 10.3 0 0 1-2.74-.33 4.78 4.78 0 0 1-2-1 4.39 4.39 0 0 1-1.16-1.61 6 6 0 0 1-.28-1.72zM90.55 14.3h2.58l3.26-3.13h-4zm-34.79 1.96c-.13-1.75-1.43-2.74-3.61-2.74-3.06 0-3.62 3.62-3.62 6.53s.61 6.15 3.62 6.15c2.23 0 3.51-1 3.61-2.85h5.59c.08 4.89-4.55 6.61-9.2 6.61-6 0-9.2-3.63-9.2-10.13s3.22-10 9.2-10.08c4.65 0 9.28 1.61 9.2 6.5z"/><path class="cls-1" d="M158.6 27.72h.3c.15 0 .24.06.24.21a.21.21 0 0 1-.24.22h-.3zm0 .7h.4c.12 0 .14.13.14.22a4.34 4.34 0 0 0 .06.44h.38a1 1 0 0 1-.09-.38c0-.22 0-.39-.3-.42a.4.4 0 0 0 .33-.39c0-.33-.28-.42-.56-.43h-.69v1.63h.34z"/><path class="cls-2" d="M20.37 1.93h-7.72c2.17 4.08.39 8.59-.06 10-1.34 4.16-1.9 5.87-1.9 5.87h7.62s.6-1.78 1.94-5.94c.45-1.42 1.75-5.71.12-9.93zm.34 3.86v.34a.11.11 0 0 1-.1.11h-.52a.11.11 0 0 1-.1-.11v-.34a.11.11 0 0 1 .1-.11h.52a.12.12 0 0 1 .1.11zm-.1-1.11v.34a.09.09 0 0 1-.09.11H20a.12.12 0 0 1-.12-.1v-.34a.09.09 0 0 1 .12-.12h.52a.13.13 0 0 1 .09.11zm-.19-1.12l.06.34a.09.09 0 0 1-.08.1h-.52a.14.14 0 0 1-.13-.11l-.07-.34a.09.09 0 0 1 .08-.11h.52a.14.14 0 0 1 .14.12zm-1-1.22H20a.15.15 0 0 1 .13.11l.09.34c0 .06 0 .11-.07.11h-.52a.15.15 0 0 1-.14-.11l-.09-.34a.08.08 0 0 1 .06-.11zm-4.67 2.31l.06.34a.09.09 0 0 1-.09.11h-.51a.14.14 0 0 1-.13-.1L14 4.64a.09.09 0 0 1 .08-.11h.52a.14.14 0 0 1 .15.12zm-.25-1.12l.1.34a.07.07 0 0 1-.07.11H14a.16.16 0 0 1-.14-.11l-.1-.34c0-.06 0-.11.07-.11h.52a.16.16 0 0 1 .15.11zm-.84-.67a.19.19 0 0 1-.15-.11l-.15-.34c0-.06 0-.11.06-.11h.52a.21.21 0 0 1 .15.11l.15.34c0 .06 0 .11-.06.11zM12.09 17.2a.17.17 0 0 1-.14.11h-.52c-.06 0-.09-.05-.07-.11l.11-.34a.15.15 0 0 1 .14-.11h.51c.06 0 .09 0 .07.11zm.36-1.11a.16.16 0 0 1-.14.11h-.52c-.06 0-.09-.05-.07-.11l.11-.34a.17.17 0 0 1 .14-.11h.52c.06 0 .09 0 .07.11zM12.8 15a.16.16 0 0 1-.14.11h-.52c-.06 0-.09 0-.06-.11l.11-.34a.17.17 0 0 1 .14-.11h.52a.08.08 0 0 1 .07.11zm.36-1.11A.16.16 0 0 1 13 14h-.5c-.06 0-.09 0-.07-.11l.11-.34a.17.17 0 0 1 .14-.11h.52c.06 0 .09 0 .07.11zm.36-1.11a.16.16 0 0 1-.14.11h-.52a.08.08 0 0 1-.07-.11l.11-.34a.17.17 0 0 1 .14-.11h.52c.06 0 .09 0 .07.11zm.36-1.11a.17.17 0 0 1-.14.11h-.52c-.06 0-.09-.05-.07-.11l.11-.34a.17.17 0 0 1 .14-.11h.52c.06 0 .09.05.07.11zm.35-1.11a.16.16 0 0 1-.14.11h-.51c-.06 0-.09-.05-.07-.11l.11-.34a.16.16 0 0 1 .14-.11h.52a.08.08 0 0 1 .07.11zm.3-1.11a.14.14 0 0 1-.13.11h-.52a.08.08 0 0 1-.08-.11l.08-.34A.15.15 0 0 1 14 9h.52a.08.08 0 0 1 .08.11zm.21-1.11a.14.14 0 0 1-.12.11h-.52a.09.09 0 0 1-.1-.13v-.34a.14.14 0 0 1 .13-.11h.52a.09.09 0 0 1 .09.11zm.14-1.11a.11.11 0 0 1-.1.11h-.52a.11.11 0 0 1-.1-.11v-.36a.11.11 0 0 1 .11-.11h.52a.1.1 0 0 1 .1.11zm-.08-1h-.52a.11.11 0 0 1-.11-.11v-.37a.1.1 0 0 1 .1-.11h.52a.12.12 0 0 1 .11.11v.35a.1.1 0 0 1-.1.11zM18 17.3a.16.16 0 0 1-.14.11h-.52a.07.07 0 0 1-.07-.11l.11-.34a.16.16 0 0 1 .14-.11h.52c.06 0 .09 0 .07.11zm.36-1.12a.16.16 0 0 1-.14.11h-.52c-.06 0-.09-.05-.07-.11l.11-.34a.16.16 0 0 1 .14-.1h.52c.06 0 .09 0 .07.11zm.36-1.12a.15.15 0 0 1-.14.11h-.52c-.05 0-.09 0-.07-.11l.11-.33a.17.17 0 0 1 .14-.11h.52c.06 0 .09.05.07.11zm.37-1.12a.17.17 0 0 1-.14.12h-.52c-.06 0-.09 0-.07-.11l.11-.34a.16.16 0 0 1 .14-.11h.52c.06 0 .09.05.07.11zm.37-1.11a.16.16 0 0 1-.14.11h-.52c-.06 0-.09 0-.07-.11l.11-.34a.16.16 0 0 1 .14-.11h.52a.07.07 0 0 1 .07.11zm.36-1.12a.16.16 0 0 1-.14.11h-.52a.07.07 0 0 1-.07-.11l.11-.34a.16.16 0 0 1 .14-.11h.52c.06 0 .09.05.07.11zm.31-1.12a.16.16 0 0 1-.14.11h-.49a.08.08 0 0 1-.07-.11l.09-.34a.15.15 0 0 1 .13-.11h.52a.08.08 0 0 1 .07.11zm.26-1.11a.14.14 0 0 1-.13.11h-.52a.09.09 0 0 1-.08-.11l.07-.34a.13.13 0 0 1 .14-.14h.52a.09.09 0 0 1 .08.11zm.17-1.12a.12.12 0 0 1-.12.11h-.52a.09.09 0 0 1-.09-.11v-.34a.13.13 0 0 1 .17-.11h.52a.09.09 0 0 1 .09.11zm.1-1.12a.12.12 0 0 1-.11.11h-.52a.1.1 0 0 1-.1-.11V6.9a.11.11 0 0 1 .11-.11h.52a.1.1 0 0 1 .1.11zm18.15 7.61l-2.39-7.34c-3.21 3.32-8.05 3-9.52 3h-6.18l2.35 7.25h6.25c1.48.03 5.97-.07 9.49-2.91zm-3.58 1.51l-.32.1a.1.1 0 0 1-.14-.06l-.16-.49a.11.11 0 0 1 .08-.14l.32-.11a.11.11 0 0 1 .14.06l.16.49a.11.11 0 0 1-.08.15zm1-.44l-.31.14a.09.09 0 0 1-.13-.05l-.16-.49a.13.13 0 0 1 .07-.15l.31-.14a.09.09 0 0 1 .13.05l.16.49a.13.13 0 0 1-.04.16zm1-.52l-.3.17a.09.09 0 0 1-.13 0l-.13-.57a.13.13 0 0 1 .06-.15l.3-.16a.08.08 0 0 1 .13 0l.16.49a.14.14 0 0 1-.06.22zm.88-1.29l.16.49a.15.15 0 0 1-.07.16l-.29.19a.08.08 0 0 1-.13 0l-.16-.5a.15.15 0 0 1 .07-.16l.3-.19a.08.08 0 0 1 .15.02zm-3.65-3.77l-.31.16a.09.09 0 0 1-.13-.05l-.13-.45a.13.13 0 0 1 .11-.19l.3-.16a.09.09 0 0 1 .13 0l.16.49a.13.13 0 0 1-.11.2zm1-.59l-.29.21a.08.08 0 0 1-.13 0l-.16-.49a.17.17 0 0 1 .12-.2l.29-.2a.08.08 0 0 1 .13 0l.16.49a.15.15 0 0 1-.11.2zm.37-1a.2.2 0 0 1 .06-.18l.28-.25h.12l.16.49a.19.19 0 0 1-.05.19l-.28.25H36zm-14.11 2.93a.16.16 0 0 1-.15-.1l-.16-.49a.07.07 0 0 1 .08-.1h.36a.16.16 0 0 1 .15.1l.16.49c0 .05 0 .1-.09.1zm1.17 0a.17.17 0 0 1-.15-.1l-.16-.49a.08.08 0 0 1 .09-.1H23a.17.17 0 0 1 .15.1l.16.49c0 .06 0 .1-.09.1zm1.17 0a.16.16 0 0 1-.15-.1l-.16-.49c0-.05 0-.1.08-.1h.35a.17.17 0 0 1 .15.1l.16.49c0 .06 0 .1-.09.1zm1.16 0a.16.16 0 0 1-.14-.1l-.16-.49c0-.06 0-.1.08-.1h.36a.16.16 0 0 1 .15.1l.16.49c0 .05 0 .1-.08.1zm1.17 0a.17.17 0 0 1-.15-.1l-.16-.49c0-.05 0-.1.08-.1h.35a.16.16 0 0 1 .15.1l.16.49a.08.08 0 0 1-.09.1zm1.17 0a.16.16 0 0 1-.15-.1l-.16-.5c0-.05 0-.09.09-.09h.35a.16.16 0 0 1 .15.1l.16.49c0 .05 0 .1-.08.1zm1.16 0a.16.16 0 0 1-.14-.1l-.16-.49c0-.05 0-.1.08-.1h.36a.16.16 0 0 1 .15.1l.15.49c0 .06 0 .1-.08.1zm1.15-.06a.14.14 0 0 1-.14-.09l-.17-.53a.09.09 0 0 1 .08-.11h.34a.14.14 0 0 1 .15.09l.16.49a.09.09 0 0 1-.08.11zm1.13-.15a.13.13 0 0 1-.14-.08l-.15-.49a.09.09 0 0 1 .08-.12l.34-.06a.13.13 0 0 1 .14.08l.16.49a.1.1 0 0 1-.08.12zm1.1-.22a.1.1 0 0 1-.14-.07l-.16-.49a.11.11 0 0 1 .08-.13l.32-.1a.1.1 0 0 1 .13.07l.16.49a.11.11 0 0 1-.07.14zm.93-.38l-.16-.5a.11.11 0 0 1 .07-.13l.31-.12a.1.1 0 0 1 .14.06l.15.49a.11.11 0 0 1-.07.14l-.32.12a.1.1 0 0 1-.15-.06zm-9.55 6.49a.17.17 0 0 1-.15-.1l-.16-.49c0-.05 0-.1.08-.1h.36a.15.15 0 0 1 .14.1l.16.49a.08.08 0 0 1-.09.1zm1.18 0a.17.17 0 0 1-.15-.1l-.15-.49c0-.06 0-.1.08-.1h.36a.17.17 0 0 1 .14.1l.16.49c0 .05 0 .1-.08.1zm1.17 0a.17.17 0 0 1-.15-.1l-.16-.49a.08.08 0 0 1 .08-.1h.36a.16.16 0 0 1 .15.1l.16.49c0 .05 0 .1-.08.1zm1.18 0a.16.16 0 0 1-.15-.1l-.16-.49c0-.06 0-.1.08-.1h.36a.15.15 0 0 1 .15.1l.16.49c0 .05 0 .1-.08.1zm1.18 0a.16.16 0 0 1-.15-.1l-.16-.5c0-.05 0-.1.08-.1h.35a.15.15 0 0 1 .15.1l.16.49a.07.07 0 0 1-.09.1zm1.17 0a.16.16 0 0 1-.15-.1l-.21-.49a.08.08 0 0 1 .08-.1h.36a.17.17 0 0 1 .15.1l.16.49a.08.08 0 0 1-.09.1zm1.16 0a.16.16 0 0 1-.15-.09l-.16-.49a.08.08 0 0 1 .08-.11h.35a.15.15 0 0 1 .14.1l.16.49a.08.08 0 0 1-.08.11zm1.14-.1a.14.14 0 0 1-.14-.08l-.15-.49a.08.08 0 0 1 .08-.11h.34a.14.14 0 0 1 .14.09l.16.49a.08.08 0 0 1-.08.11zm1.09-.26a.12.12 0 0 1-.14-.08l-.16-.49a.09.09 0 0 1 .08-.12l.34-.06a.14.14 0 0 1 .15.08l.16.5a.1.1 0 0 1-.08.12zm1.1-.25a.12.12 0 0 1-.14-.07l-.15-.49a.1.1 0 0 1 .07-.13L34 16a.11.11 0 0 1 .14.07l.16.49a.1.1 0 0 1-.08.12zm-1.61 19.62l6.24-4.56c-4.15-2-5.37-6.71-5.83-8.11-1.36-4.15-1.92-5.87-1.92-5.87l-6.17 4.49s.56 1.79 1.93 5.94c.51 1.42 1.96 5.65 5.75 8.11zm-2.55-2.93l-.2-.27a.11.11 0 0 1 0-.15l.42-.3a.11.11 0 0 1 .15 0l.21.27a.1.1 0 0 1 0 .15l-.42.31a.11.11 0 0 1-.16-.01zm.74.84l-.24-.28a.1.1 0 0 1 0-.15l.42-.3a.13.13 0 0 1 .16 0l.23.25a.09.09 0 0 1 0 .2l-.42.3a.12.12 0 0 1-.15-.01zm.81.79l-.24-.23a.09.09 0 0 1 0-.14l.42-.3a.13.13 0 0 1 .17 0l.25.23a.08.08 0 0 1 0 .14l-.42.3a.13.13 0 0 1-.19 0zm1.5.43l-.42.3a.16.16 0 0 1-.17 0l-.28-.22s-.05-.1 0-.13l.42-.31a.16.16 0 0 1 .17 0l.27.22a.08.08 0 0 1 0 .15zm2.45-4.64l-.25-.24a.09.09 0 0 1 0-.14l.42-.3a.14.14 0 0 1 .16 0l.24.24a.08.08 0 0 1 0 .14l-.42.3a.14.14 0 0 1-.16.01zm.86.75l-.28-.21a.08.08 0 0 1 0-.14l.42-.3a.17.17 0 0 1 .18 0l.28.21a.08.08 0 0 1 0 .13l-.42.3a.16.16 0 0 1-.23.02zm1.07 0a.19.19 0 0 1 .19 0l.32.18c.06 0 .07.09 0 .12l-.42.3a.18.18 0 0 1-.19 0l-.32-.18c-.06 0-.07-.09 0-.12zm-7.18-12.46A.16.16 0 0 1 30 19l.42-.31s.1 0 .12.05l.11.34a.16.16 0 0 1 0 .17l-.42.3a.07.07 0 0 1-.12 0zm.37 1.11a.16.16 0 0 1 0-.17l.42-.3a.08.08 0 0 1 .12.05l.11.34a.17.17 0 0 1 0 .17l-.42.3s-.1 0-.12-.05zm.36 1.11a.17.17 0 0 1 0-.17l.42-.3h.12l.11.34a.17.17 0 0 1 0 .17l-.42.3s-.1 0-.12-.05zm.33 1.1a.18.18 0 0 1 0-.17l.42-.3s.1 0 .12.05l.11.34a.16.16 0 0 1-.05.17l-.42.3h-.12zm.37 1.1a.17.17 0 0 1 0-.17l.42-.3a.08.08 0 0 1 .12.05l.11.34a.16.16 0 0 1-.05.17l-.42.31a.08.08 0 0 1-.12-.05zm.36 1.11a.17.17 0 0 1 0-.17l.42-.3a.08.08 0 0 1 .12.05l.11.34a.17.17 0 0 1 0 .17l-.42.3a.08.08 0 0 1-.12 0zm.37 1.1a.15.15 0 0 1 0-.17l.42-.31s.1 0 .12.05l.11.33a.16.16 0 0 1 0 .17l-.42.3s-.1 0-.12-.05zm.41 1.07a.14.14 0 0 1 0-.17l.42-.3a.08.08 0 0 1 .13 0l.14.32a.15.15 0 0 1 0 .17l-.42.3a.08.08 0 0 1-.13 0zm.48 1a.13.13 0 0 1 0-.16l.42-.3a.09.09 0 0 1 .14 0l.16.3a.12.12 0 0 1 0 .16l-.42.31a.1.1 0 0 1-.14 0zm.55 1a.11.11 0 0 1 0-.15l.42-.3a.1.1 0 0 1 .15 0l.2.27a.11.11 0 0 1 0 .15l-.42.3a.1.1 0 0 1-.15 0zm.65.76l.42-.3a.11.11 0 0 1 .15 0l.21.26a.1.1 0 0 1 0 .15l-.42.3a.11.11 0 0 1-.15 0l-.22-.26a.11.11 0 0 1 .04-.13zm-9.14-7.06a.16.16 0 0 1 0-.17l.42-.3s.1 0 .12.05l.11.34a.16.16 0 0 1 0 .17l-.42.3a.07.07 0 0 1-.12 0zm.37 1.12a.15.15 0 0 1 0-.17l.42-.3h.12l.11.34a.16.16 0 0 1 0 .17l-.42.3a.08.08 0 0 1-.12 0zm.37 1.12a.16.16 0 0 1 0-.17l.42-.3a.08.08 0 0 1 .12 0l.11.34a.16.16 0 0 1 0 .17l-.42.3s-.1 0-.12-.05zm.36 1.12a.16.16 0 0 1 0-.17l.42-.3s.1 0 .12.05l.11.34a.16.16 0 0 1-.05.17l-.42.3a.08.08 0 0 1-.12-.05zm.39 1.09a.16.16 0 0 1 0-.17l.42-.3a.08.08 0 0 1 .12 0l.11.34a.16.16 0 0 1-.05.17l-.42.3a.08.08 0 0 1-.12 0zm.37 1.11A.16.16 0 0 1 27 28l.42-.3h.12l.11.34a.16.16 0 0 1 0 .17l-.42.3a.07.07 0 0 1-.12 0zm.41 1.09a.15.15 0 0 1 0-.17l.42-.3h.13l.13.33a.14.14 0 0 1 0 .17l-.42.3a.08.08 0 0 1-.12 0zm.45 1.05a.13.13 0 0 1 0-.16l.41-.3a.09.09 0 0 1 .14 0l.15.31a.14.14 0 0 1 0 .16l-.42.3a.09.09 0 0 1-.13 0zm.52 1a.12.12 0 0 1 0-.16l.42-.31a.09.09 0 0 1 .14 0l.16.29a.13.13 0 0 1 0 .16l-.42.3a.09.09 0 0 1-.14 0zm.58 1a.11.11 0 0 1 0-.15l.42-.3a.1.1 0 0 1 .14 0l.19.28a.11.11 0 0 1 0 .15l-.42.31a.1.1 0 0 1-.14 0zm-19.18 4.5l6.26 4.53c.64-4.58 4.73-7.19 5.91-8.05 3.52-2.58 5-3.64 5-3.64l-6.17-4.48s-1.54 1.09-5.06 3.67c-1.2.89-4.77 3.61-5.94 7.97zm2-3.33l.2-.28a.11.11 0 0 1 .15 0l.42.3a.11.11 0 0 1 0 .15l-.2.27a.1.1 0 0 1-.14 0l-.42-.3a.11.11 0 0 1-.01-.13zm-.58 1l.17-.3a.1.1 0 0 1 .14 0l.42.31a.12.12 0 0 1 0 .16l-.17.29a.09.09 0 0 1-.14 0l-.42-.31a.12.12 0 0 1 0-.18zm-.5 1l.15-.31a.09.09 0 0 1 .13 0l.42.31a.14.14 0 0 1 0 .16l-.15.31a.09.09 0 0 1-.13 0l-.42-.31a.14.14 0 0 1 0-.19zm.06 1.58l-.42-.3a.16.16 0 0 1 0-.17l.12-.33a.08.08 0 0 1 .13 0l.42.31a.15.15 0 0 1 0 .17l-.13.33a.08.08 0 0 1-.12-.01zm5.17.9l.15-.31a.09.09 0 0 1 .13 0l.42.3a.13.13 0 0 1 0 .16l-.15.31a.09.09 0 0 1-.13 0l-.42-.3a.14.14 0 0 1-.01-.21zm-.45 1.05l.11-.34c0-.06.08-.08.12 0l.42.31a.15.15 0 0 1 0 .17l-.11.34c0 .06-.07.08-.12.05l-.42-.31a.16.16 0 0 1 0-.27zm.28 1a.19.19 0 0 1 .06.18l-.08.37c0 .06-.06.09-.11.06l-.42-.31a.19.19 0 0 1-.06-.18l.08-.36c0-.07.07-.09.11-.06zm9.69-10.68a.17.17 0 0 1 .18 0l.42.31a.08.08 0 0 1 0 .13l-.29.21a.16.16 0 0 1-.18 0l-.42-.3a.08.08 0 0 1 0-.13zm-.94.69a.17.17 0 0 1 .18 0l.42.3a.08.08 0 0 1 0 .13l-.29.21a.16.16 0 0 1-.18 0l-.41-.3a.08.08 0 0 1 0-.13zm-.94.69a.16.16 0 0 1 .18 0l.42.31a.07.07 0 0 1 0 .13l-.29.21a.16.16 0 0 1-.18 0l-.43-.3v-.13zm-.94.69a.17.17 0 0 1 .18 0l.42.3a.08.08 0 0 1 0 .13l-.29.21a.16.16 0 0 1-.18 0l-.42-.31v-.13zm-.94.66a.17.17 0 0 1 .18 0l.42.3a.08.08 0 0 1 0 .13l-.29.21a.16.16 0 0 1-.18 0l-.42-.31v-.12zm-.95.69a.16.16 0 0 1 .18 0l.42.31v.13l-.29.21a.17.17 0 0 1-.18 0l-.42-.34a.08.08 0 0 1 0-.13zm-.93.69a.15.15 0 0 1 .17 0l.42.3a.08.08 0 0 1 0 .13L20 34a.16.16 0 0 1-.18 0l-.42-.31a.08.08 0 0 1 0-.13zm-.9.72a.14.14 0 0 1 .17 0l.41.3a.09.09 0 0 1 0 .14l-.26.23a.14.14 0 0 1-.17 0l-.42-.31a.08.08 0 0 1 0-.14zm-.83.78a.13.13 0 0 1 .17 0l.42.3a.1.1 0 0 1 0 .14l-.24.24a.13.13 0 0 1-.16 0l-.41-.31a.09.09 0 0 1 0-.14zm-.76.81a.11.11 0 0 1 .15 0l.41.31a.11.11 0 0 1 0 .15l-.2.28a.11.11 0 0 1-.15 0l-.42-.3A.12.12 0 0 1 17 36zm-.53.86l.42.31a.11.11 0 0 1 0 .15l-.18.29a.1.1 0 0 1-.14 0l-.4-.3a.11.11 0 0 1 0-.15l.19-.28a.1.1 0 0 1 .12-.01zm3.91-10.87a.17.17 0 0 1 .18 0l.42.3a.08.08 0 0 1 0 .13l-.29.21a.16.16 0 0 1-.17 0l-.43-.32a.08.08 0 0 1 0-.13zm-.95.69a.16.16 0 0 1 .18 0l.42.31a.07.07 0 0 1 0 .13L20 27a.16.16 0 0 1-.18 0l-.42-.31v-.13zm-.95.69a.16.16 0 0 1 .18 0l.42.3a.08.08 0 0 1 0 .13l-.29.21a.16.16 0 0 1-.18 0l-.42-.31v-.13zm-.95.69a.15.15 0 0 1 .18 0l.42.3a.08.08 0 0 1 0 .13l-.29.21a.16.16 0 0 1-.18 0l-.42-.3a.08.08 0 0 1 0-.13zm-1 .69a.15.15 0 0 1 .18 0l.42.31a.08.08 0 0 1 0 .13l-.29.21a.15.15 0 0 1-.18 0l-.42-.31v-.13zm-.94.69a.16.16 0 0 1 .18 0l.42.31a.08.08 0 0 1 0 .13l-.29.21a.15.15 0 0 1-.18 0l-.42-.3v-.13zm-.91.72a.14.14 0 0 1 .17 0l.42.3a.08.08 0 0 1 0 .14l-.27.22a.14.14 0 0 1-.17 0l-.42-.3a.08.08 0 0 1 0-.13zm-.87.75a.13.13 0 0 1 .16 0l.42.31a.08.08 0 0 1 0 .14l-.25.24a.12.12 0 0 1-.16 0l-.42-.3a.09.09 0 0 1 0-.14zm-.79.8a.12.12 0 0 1 .16 0l.42.31a.09.09 0 0 1 0 .14l-.23.25a.13.13 0 0 1-.16 0l-.41-.31a.09.09 0 0 1 0-.14zm-.74.85a.12.12 0 0 1 .16 0l.41.31a.1.1 0 0 1 0 .15l-.21.26a.12.12 0 0 1-.16 0l-.42-.31a.1.1 0 0 1 0-.15zM2.39 15.44L0 22.79c4.55-.8 8.29 2.29 9.48 3.15l5 3.62 2.36-7.25s-1.51-1.12-5.05-3.68c-1.2-.86-4.89-3.41-9.4-3.19zm3.78.88l.32.1a.11.11 0 0 1 .07.14L6.4 17a.11.11 0 0 1-.14.06L5.94 17a.1.1 0 0 1-.07-.13l.13-.48a.11.11 0 0 1 .16-.07zm-1.09-.25l.34.06a.09.09 0 0 1 .08.12l-.16.49a.12.12 0 0 1-.14.08l-.33-.07a.1.1 0 0 1-.08-.12l.16-.49a.12.12 0 0 1 .12-.07zM4 15.9h.34a.08.08 0 0 1 .08.11l-.16.49a.14.14 0 0 1-.14.08h-.34a.09.09 0 0 1-.08-.12l.11-.46a.14.14 0 0 1 .19-.1zm-1.47.53l.16-.49a.16.16 0 0 1 .15-.09h.35a.08.08 0 0 1 .08.11l-.16.49a.16.16 0 0 1-.15.1h-.35c-.1-.01-.13-.06-.11-.12zm.74 5.19l.34.05a.09.09 0 0 1 .08.11l-.16.49a.13.13 0 0 1-.14.08h-.34a.09.09 0 0 1-.08-.12l.17-.49a.13.13 0 0 1 .09-.11zm-1.14-.1h.36c.06 0 .1 0 .08.1l-.16.49a.16.16 0 0 1-.15.09h-.39c-.06 0-.1 0-.08-.09l.16-.5a.16.16 0 0 1 .14-.09zm-.89.59a.2.2 0 0 1-.16.11H.71c-.07 0-.11 0-.09-.09l.16-.49a.2.2 0 0 1 .15-.12h.37c.07 0 .11 0 .09.08zm13.14 5.94a.16.16 0 0 1 .06.17l-.16.49c0 .06-.07.07-.13 0l-.28-.21a.16.16 0 0 1-.06-.17l.16-.49c0-.05.07-.07.12 0zm-.94-.69a.18.18 0 0 1 .06.17l-.2.47a.08.08 0 0 1-.13 0l-.29-.21a.16.16 0 0 1-.06-.17l.16-.49c0-.05.07-.07.13 0zm-.94-.69a.17.17 0 0 1 .06.17l-.16.49c0 .06-.08.07-.13 0l-.29-.21a.17.17 0 0 1-.06-.17l.08-.45a.08.08 0 0 1 .13 0zm-.99-.67a.17.17 0 0 1 .06.17l-.16.49a.08.08 0 0 1-.13 0l-.28-.19a.16.16 0 0 1-.06-.17l.16-.49a.08.08 0 0 1 .13 0zm-.94-.68a.17.17 0 0 1 .06.17l-.16.49c0 .06-.08.07-.13 0l-.29-.21a.15.15 0 0 1-.06-.16l.16-.49c0-.05.07-.07.13 0zm-.95-.69a.16.16 0 0 1 .06.17l-.16.49c0 .06-.07.07-.13 0l-.29-.21a.15.15 0 0 1-.1-.14l.16-.49c0-.05.07-.07.13 0zM8.68 24a.16.16 0 0 1 .06.17l-.16.49a.08.08 0 0 1-.13 0l-.29-.2a.16.16 0 0 1-.06-.17l.16-.49a.08.08 0 0 1 .13 0zm-1-.63a.14.14 0 0 1 .06.15l-.13.48a.09.09 0 0 1-.13 0l-.3-.18a.14.14 0 0 1-.06-.15l.16-.5a.08.08 0 0 1 .13 0zm-1-.55a.13.13 0 0 1 .07.15l-.16.49a.09.09 0 0 1-.13.05l-.31-.16a.12.12 0 0 1-.07-.15l.16-.49a.09.09 0 0 1 .13 0zm-1-.47a.12.12 0 0 1 .07.14l-.16.49a.1.1 0 0 1-.14.06l-.32-.1a.11.11 0 0 1-.07-.14l.16-.49a.1.1 0 0 1 .14-.06zm-1-.24l-.16.49a.12.12 0 0 1-.14.07l-.33-.09a.1.1 0 0 1-.05-.17l.16-.49a.12.12 0 0 1 .14-.07l.33.09a.1.1 0 0 1 .1.12zm11.54.37a.16.16 0 0 1 .06.17l-.16.49c0 .06-.07.07-.13 0l-.29-.21a.16.16 0 0 1-.06-.17l.16-.49a.08.08 0 0 1 .13 0zm-.95-.69a.17.17 0 0 1 .06.17l-.16.49a.07.07 0 0 1-.13 0l-.29-.21a.16.16 0 0 1-.06-.17l.17-.49c0-.05.07-.07.13 0zm-.95-.69a.17.17 0 0 1 .06.17l-.17.49c0 .06-.07.07-.12 0l-.29-.21a.15.15 0 0 1-.06-.16l.16-.49a.08.08 0 0 1 .12 0zm-1-.69a.16.16 0 0 1 .06.17l-.17.49a.07.07 0 0 1-.12 0l-.29-.21a.15.15 0 0 1-.06-.16l.16-.49a.08.08 0 0 1 .13 0zm-.95-.7a.16.16 0 0 1 .06.17l-.16.49a.07.07 0 0 1-.12 0l-.15-.23a.16.16 0 0 1-.1-.14l.16-.49c0-.05.07-.07.13 0zm-1-.69a.16.16 0 0 1 .06.17l-.16.49c0 .06-.07.07-.13 0l-.14-.22a.16.16 0 0 1-.06-.16l.16-.49c0-.05.07-.06.13 0zm-1-.64a.14.14 0 0 1 .06.16l-.16.49a.08.08 0 0 1-.13 0l-.14-.19a.16.16 0 0 1-.07-.16l.16-.49a.08.08 0 0 1 .13 0zm-1-.59a.14.14 0 0 1 .07.15l-.17.49a.09.09 0 0 1-.13 0L9 18.27a.13.13 0 0 1 0-.15l.16-.49a.09.09 0 0 1 .13 0zm-1-.51a.12.12 0 0 1 .07.15l-.16.49a.09.09 0 0 1-.13.05L8 17.78a.12.12 0 0 1 0-.15l.16-.49a.09.09 0 0 1 .13-.05zm-1-.44a.11.11 0 0 1 .07.13l-.16.49a.1.1 0 0 1-.14.06L7 17.36a.11.11 0 0 1-.07-.14l.16-.49a.1.1 0 0 1 .14-.06z"/><path class="cls-1" d="M64 1.86h4v1h-2.73v1.6h2.58v1h-2.58v2.63H64zm9.62 0v3.83q0 1.56 1.3 1.56t1.33-1.42v-4h1.28V6a2.5 2.5 0 0 1-.19.84 2.07 2.07 0 0 1-1 1 3 3 0 0 1-1.41.33 3.15 3.15 0 0 1-1.48-.35 1.83 1.83 0 0 1-1-1.15 3.77 3.77 0 0 1-.15-1V1.86zm10.08 0l2.24 4.74V1.86h1.17v6.23H85.3l-2.25-4.82v4.82h-1.17V1.86zm9.05 0h.82A7.92 7.92 0 0 1 94.8 2a2.23 2.23 0 0 1 1.6 1.09A3.61 3.61 0 0 1 96.88 5q0 3-3.22 3.11h-2.22V1.86zm0 5.26h.83a3.1 3.1 0 0 0 .71-.07q1.3-.27 1.31-2.05a3.51 3.51 0 0 0-.09-.79 1.77 1.77 0 0 0-.38-.79 1.81 1.81 0 0 0-1.28-.56h-1.14zm10.78-5.26h1.64l2.32 6.23h-1.39l-.49-1.33H103l-.44 1.33h-1.36zm-.22 3.93h2l-1-3zm12.55-2.11a1.13 1.13 0 0 0-1.24-1q-1.54 0-1.53 2.13a4.09 4.09 0 0 0 .25 1.6 1.3 1.3 0 0 0 1.31.81 1.37 1.37 0 0 0 .84-.27 1.08 1.08 0 0 0 .41-.76V6h1.27v.18a1.91 1.91 0 0 1-.53 1.19 2.42 2.42 0 0 1-1.13.66 3 3 0 0 1-.9.13 2.64 2.64 0 0 1-2.15-.92 3.56 3.56 0 0 1-.64-2.24 5.12 5.12 0 0 1 .2-1.44 2.3 2.3 0 0 1 1-1.37 3.09 3.09 0 0 1 1.65-.46 3.41 3.41 0 0 1 1.05.17 2.26 2.26 0 0 1 .87.52A1.86 1.86 0 0 1 117 3a1.72 1.72 0 0 1 .16.65v.19h-1.28zm5.66-1.82h1.28v6.23h-1.28zm5.9 1.45a2.1 2.1 0 0 1 .55-.83 2.35 2.35 0 0 1 .78-.51 3.54 3.54 0 0 1 1.25-.23 2.81 2.81 0 0 1 2 .74 2.44 2.44 0 0 1 .57.86 4.48 4.48 0 0 1 .27 1.59q0 3.27-2.87 3.29T127.13 5a4.73 4.73 0 0 1 .29-1.69zm1 1.63q0 2.32 1.62 2.3t1.6-2.24a3.76 3.76 0 0 0-.26-1.45 1.3 1.3 0 0 0-1.38-.84 1.85 1.85 0 0 0-.68.12q-.93.37-.92 2.11zM130.06 0h1.37l-1.24 1.33h-1zm9 1.86l2.25 4.73V1.86h1.17v6.23h-1.82l-2.24-4.82v4.82h-1.17V1.86z"/></g></g></svg>